<?xml version="1.0" encoding="UTF-8"?>
<svg id="Layer_1" data-name="Layer 1" xmlns="http://www.w3.org/2000/svg" viewBox="0 0 200 200">
  <defs>
    <style>
      .cls-1 {
        fill: #161616;
        stroke-width: 0px;
      }
    </style>
  </defs>
  <path class="cls-1" d="M115.63,190.42c-4.85-1.66-7.97-2.44-10.85-3.75-25.5-11.69-51.01-23.36-76.41-35.27-20.26-9.49-27.73-39.5-14.52-57.19,18.72-25.06,37.34-50.18,56.07-75.22,7.88-10.53,14.29-11.94,25.36-5.62,22.98,13.1,45.84,26.42,68.87,39.41,14.13,7.97,21.43,21.45,27.85,35.18,1.78,3.8.16,11.12-2.59,14.81-20.12,26.95-40.76,53.52-61.7,79.85-3,3.77-8.48,5.55-12.09,7.81h0Z"/>
</svg>