<?xml version="1.0" encoding="UTF-8"?>
<svg id="Layer_1" data-name="Layer 1" xmlns="http://www.w3.org/2000/svg" viewBox="0 0 200 200">
  <defs>
    <style>
      .cls-1 {
        fill: #f7f7f7;
        stroke-width: 0px;
      }
    </style>
  </defs>
  <path class="cls-1" d="M115.63,190.42c-4.85-1.66-7.97-2.44-10.85-3.75-25.5-11.69-51.01-23.36-76.41-35.27-20.26-9.49-27.73-39.5-14.52-57.19,18.72-25.06,37.34-50.18,56.07-75.22,7.88-10.53,14.29-11.94,25.36-5.62,22.98,13.1,45.84,26.42,68.87,39.41,14.13,7.97,21.43,21.45,27.85,35.18,1.78,3.8.16,11.12-2.59,14.81-20.12,26.95-40.76,53.52-61.7,79.85-3,3.77-8.48,5.55-12.09,7.81ZM115.65,132c3.69-1.66,10.28-3.45,15.46-7.19,10.14-7.32,19.57-15.66,29.17-23.71,8.19-6.88,8.23-9.03.12-16.36-22.61-20.43-45.3-40.78-67.98-61.14-7.46-6.69-10.46-5.85-12.74,3.99-4.63,20.04-9.03,40.14-13.5,60.22-1.86,8.35-3.86,16.67-5.38,25.08-1.19,6.59.91,12.2,8.16,13.29,14.53,2.18,29.16,3.68,46.68,5.82ZM77.18,24.81c-.79-.33-1.58-.65-2.37-.98-20.06,26.9-40.22,53.73-60.03,80.82-1.77,2.42-2.23,6.77-1.55,9.83,1.38,6.21,3.77,12.22,6.09,18.18,1.86,4.79,5.12,5.93,10.27,4.06,15.65-5.67,25.16-16.57,29.01-32.55,3.75-15.57,7.33-31.19,10.98-46.79,2.54-10.86,5.07-21.71,7.61-32.57ZM28.16,142.08c1.57,1.5,2.33,2.69,3.41,3.19,25.6,12.01,51.19,24.05,76.9,35.83,5.72,2.62,8.55-.6,9.03-6.24.68-7.98,1.48-15.96,1.79-23.96.36-9.36-3.29-13.75-12.74-15.19-12.65-1.93-25.32-3.92-38.05-4.97-14.42-1.19-27.66,2.87-40.33,11.33ZM185,97.49c-.84-1.21-1.69-2.43-2.53-3.64-5.28,2.46-11.19,4.09-15.7,7.55-9.5,7.29-18.31,15.48-27.3,23.42-13.29,11.74-21.17,35.66-17.1,54.12,21.31-27.71,41.97-54.58,62.64-81.46ZM102.62,25.64c-.44.54-.88,1.08-1.32,1.61,5.57,4.91,11.14,9.81,16.69,14.72,15.81,13.98,31.56,28.05,47.46,41.92,5.36,4.68,11.21,8.64,20.09,5.44-6.21-10.02-11.58-21.59-20.63-27.74-19.77-13.45-41.42-24.14-62.3-35.96Z"/>
</svg>