<?xml version="1.0" encoding="UTF-8"?>
<svg id="Layer_1" data-name="Layer 1" xmlns="http://www.w3.org/2000/svg" viewBox="0 0 200 200">
  <defs>
    <style>
      .cls-1 {
        fill: #f7f7f7;
        stroke-width: 0px;
      }
    </style>
  </defs>
  <path class="cls-1" d="M190.79,117.8c-1.36,16.41-15,35.47-29.85,41.06-23.68,8.91-47.32,17.92-70.92,27.04-12.4,4.79-19.3,2.94-26.44-8.2-16.82-26.25-33.4-52.66-50.28-78.87-5.6-8.69-5.45-16.35.59-25.01,9.2-13.18,19.85-23.77,35.07-30.24,20.82-8.84,40.98-19.24,61.49-28.84,12.11-5.67,17.67-3.87,24.6,7.49,16.51,27.07,33.1,54.1,49.44,81.27,2.66,4.43,4.23,9.52,6.3,14.3ZM86.42,132.58c.3-1.05.6-2.09.9-3.14,10.92,0,21.85.22,32.76-.06,11.15-.29,17.02-6.69,15.64-17.53-3.57-28.04-7.44-56.03-11.36-84.02-1.03-7.32-4.35-8.65-10.27-4.08-24.92,19.22-49.68,38.63-74.6,57.85-6.04,4.66-5.47,8.85-.39,13.77,9.38,9.09,18.07,18.99,28.03,27.38,5.38,4.53,12.8,6.64,19.3,9.84ZM128.35,24.41c-.53,3.16-.86,3.95-.76,4.67,4.19,28.74,7.76,57.59,13.11,86.11,1.38,7.36,7.16,15.07,13.04,20.16,14.99,13,17.76,11.91,25.9-5.86.33-.73.6-1.49,1-2.18,3.98-7.04,3.06-13.53-1.33-20.23-6.72-10.24-12.9-20.84-19.33-31.28-10.15-16.5-20.31-33-31.63-51.4ZM166.59,148.39c-13.05-9.46-25.38-15.24-39.79-14.87-12.77.33-25.53,1.07-38.27,2.01-7.96.59-11.98,5.04-12.22,12.96-.24,7.72-.16,15.44-.14,23.17.03,9.32,2.33,10.97,11.15,7.68,23.93-8.93,47.82-17.96,71.7-27.01,2.11-.8,4.03-2.07,7.56-3.93ZM18.56,88.52c-.71.79-1.41,1.58-2.12,2.37,18.02,28.45,36.03,56.9,54.05,85.36,3.3-24.18,1.73-46.16-18.85-61.96-11.09-8.52-16.92-24.18-33.08-25.77ZM103.89,27.44c-.36-.6-.72-1.21-1.09-1.81-21.74,10.54-43.77,20.53-65.1,31.85-9.99,5.3-14.86,15.98-19.82,26.86,5.92-.29,11.44-1.36,16.2-3.88,4.88-2.58,9.02-6.57,13.46-9.96,18.79-14.35,37.57-28.71,56.35-43.06Z"/>
</svg>