<?xml version="1.0" encoding="UTF-8"?>
<svg id="Layer_1" data-name="Layer 1" xmlns="http://www.w3.org/2000/svg" viewBox="0 0 200 200">
  <defs>
    <style>
      .cls-1 {
        fill: #161616;
        stroke-width: 0px;
      }
    </style>
  </defs>
  <path class="cls-1" d="M195.46,117.58c-1.26-4-2.49-8.09-4.46-11.78-14.5-27.5-29.2-54.9-43.9-82.4-6.2-11.5-11.3-13.5-22.7-8.1-.58.27-1.16.54-1.75.81-1.61.76-3,1.87-4.12,3.2-5.65-8.48-10.79-9.42-20.93-4.31-19.1,9.6-37.8,19.9-57.2,28.7-14.1,6.5-24,17.1-32.6,30.2-5.6,8.6-5.7,16.2-.5,24.9,15.7,26.2,31.1,52.5,46.6,78.7,6.6,11.1,13.1,13,24.6,8.2,2.96-1.23,5.92-2.43,8.89-3.66,3.12,3.53,8.22,5.25,13.26,3.35.08-.03.17-.06.25-.1,22.2-8.4,44.4-16.8,66.6-25,13.04-4.88,25.47-21.56,28.36-37.06.35-1.88.17-3.83-.4-5.66Z"/>
</svg>