<?xml version="1.0" encoding="utf-8"?>
<!-- Generator: Adobe Illustrator 28.4.1, SVG Export Plug-In . SVG Version: 6.00 Build 0)  -->
<svg version="1.1" id="Layer_1" xmlns="http://www.w3.org/2000/svg" xmlns:xlink="http://www.w3.org/1999/xlink" x="0px" y="0px"
	 viewBox="0 0 200 200" style="enable-background:new 0 0 200 200;" xml:space="preserve">
<style type="text/css">
	.st0{fill:#F7F7F7;}
</style>
<g>
	<path class="st0" d="M191,105.8c-14.5-27.5-29.2-54.9-43.9-82.4c-6.2-11.5-11.3-13.5-22.7-8.1c-2.4,1.1-4.8,2.3-7.2,3.4
		c0.8,1.1,1.5,2.4,2.3,3.7c1.1,1.9,2.2,3.8,3.2,5.7c1.6-1.2,3.2-2.5,4.8-3.7c5.6-4.4,8.7-3,9.4,4.3c1,9.9,2.1,19.9,3.1,29.8
		c1.2,2.1,2.4,4.2,3.6,6.3c-1.2-11.6-2.4-23.2-3.7-34.8c-0.1-0.7,0.3-1.5,0.8-4.6l0,0c10.1,18.7,19.1,35.4,28.1,52.1
		c5.7,10.6,11.2,21.3,17.2,31.7c3.9,6.8,4.6,13.3,0.7,20.2c-0.4,0.7-0.7,1.4-1,2.1c-7.5,16.3-10.3,18.3-21.7,7.6c-0.6,1-1.2,2-1.9,3
		c3.6,2.2,7.2,4.9,10.9,7.9l0,0c-3.3,1.8-5.1,3-7.1,3.7c-22.4,8.4-44.9,16.7-67.4,25c-3.3,1.2-5.6,1.6-7.1,1.2
		c-3.1,1.3-6.3,2.6-9.4,3.9c4.9,4.6,10.5,4.7,18.9,1.5c22.2-8.4,44.4-16.8,66.6-25c13.9-5.2,27.1-23.8,28.8-40.1
		C194.7,115.4,193.4,110.3,191,105.8z"/>
	<path class="st0" d="M172.3,117.8c-1.3,16.4-14,35.4-27.8,40.9c-22,8.9-44,17.9-66,27c-11.5,4.8-18,2.9-24.6-8.2
		C38.4,151.3,23,125,7.3,98.8c-5.2-8.7-5.1-16.3,0.5-24.9c8.6-13.1,18.5-23.7,32.6-30.2C59.8,34.9,78.5,24.6,97.6,15
		c11.3-5.7,16.4-3.9,22.9,7.5c15.4,27,30.8,53.9,46,81C169,107.9,170.4,113,172.3,117.8z M75.3,132.5c0.3-1,0.6-2.1,0.8-3.1
		c10.2,0,20.3,0.2,30.5-0.1c10.4-0.3,15.8-6.7,14.5-17.5c-3.3-28-6.9-55.9-10.6-83.8c-1-7.3-4-8.6-9.6-4.1
		C77.8,43.1,54.8,62.5,31.6,81.7c-5.6,4.6-5.1,8.8-0.4,13.7c8.7,9.1,16.8,18.9,26.1,27.3C62.3,127.2,69.2,129.3,75.3,132.5
		L75.3,132.5z M114.3,24.6c-0.5,3.2-0.8,3.9-0.7,4.7c3.9,28.7,7.2,57.4,12.2,85.9c1.3,7.3,6.7,15,12.1,20.1
		c13.9,13,16.5,11.9,24.1-5.8c0.3-0.7,0.6-1.5,0.9-2.2c3.7-7,2.8-13.5-1.2-20.2c-6.3-10.2-12-20.8-18-31.2
		C134.2,59.4,124.8,43,114.3,24.6L114.3,24.6z M149.8,148.3c-12.1-9.4-23.6-15.2-37-14.8c-11.9,0.3-23.7,1.1-35.6,2
		c-7.4,0.6-11.1,5-11.4,12.9c-0.2,7.7-0.1,15.4-0.1,23.1c0,9.3,2.2,10.9,10.4,7.7c22.3-8.9,44.5-17.9,66.7-26.9
		C144.8,151.4,146.5,150.1,149.8,148.3L149.8,148.3z M12.2,88.6c-0.7,0.8-1.3,1.6-2,2.4c16.8,28.4,33.5,56.7,50.3,85.1
		c3.1-24.1,1.6-46-17.5-61.8C32.6,105.8,27.2,90.1,12.2,88.6z M91.5,27.6c-0.3-0.6-0.7-1.2-1-1.8C70.3,36.4,49.8,46.3,30,57.6
		c-9.3,5.3-13.8,15.9-18.4,26.8c5.5-0.3,10.6-1.4,15.1-3.9c4.5-2.6,8.4-6.6,12.5-9.9C56.6,56.3,74.1,42,91.5,27.6z"/>
</g>
</svg>
