<?xml version="1.0" encoding="UTF-8"?>
<svg id="Layer_1" data-name="Layer 1" xmlns="http://www.w3.org/2000/svg" viewBox="0 0 200 200">
  <defs>
    <style>
      .cls-1 {
        fill: #161616;
        stroke-width: 0px;
      }
    </style>
  </defs>
  <path class="cls-1" d="M116.67,11.2c9.4-2.12,19.83,3.54,27.91,15.1,13.34,19.08,26.96,37.96,40.3,57.05,8.42,12.05,8.54,24.54,1.86,37.58-4.81,9.39-8.93,19.15-13.24,28.8-9.7,21.65-28.59,31.31-49.95,35.95-13.63,2.96-28.01,2.46-42.06,3.47-12.58.91-21.13-6.2-27.96-15.29-13.5-17.98-26.6-36.28-39.48-54.72-5.68-8.13-7.49-17.12-3.11-26.81,5.14-11.35,10.12-22.79,14.72-34.37,6.3-15.84,18.46-26.65,31.52-36.37,4.52-3.36,10.86-4.99,16.6-5.85,12.57-1.88,25.3-2.76,42.88-4.55h0Z"/>
</svg>