<?xml version="1.0" encoding="UTF-8"?>
<svg id="Layer_1" data-name="Layer 1" xmlns="http://www.w3.org/2000/svg" viewBox="0 0 200 200">
  <defs>
    <style>
      .cls-1 {
        fill: #f7f7f7;
        stroke-width: 0px;
      }
    </style>
  </defs>
  <path class="cls-1" d="M116.67,11.2c9.4-2.12,19.83,3.54,27.91,15.1,13.34,19.08,26.96,37.96,40.3,57.05,8.42,12.05,8.54,24.54,1.86,37.58-4.81,9.39-8.93,19.15-13.24,28.8-9.7,21.65-28.59,31.31-49.95,35.95-13.63,2.96-28.01,2.46-42.06,3.47-12.58.91-21.13-6.2-27.96-15.29-13.5-17.98-26.6-36.28-39.48-54.72-5.68-8.13-7.49-17.12-3.11-26.81,5.14-11.35,10.12-22.79,14.72-34.37,6.3-15.84,18.46-26.65,31.52-36.37,4.52-3.36,10.86-4.99,16.6-5.85,12.57-1.88,25.3-2.76,42.88-4.55ZM114.52,122.25s-.06,0-.08,0c0-6.49.08-12.99-.02-19.48-.14-9.57-5.16-15.83-13.9-18.96-11.47-4.11-23.14-7.69-34.62-11.77-8.18-2.9-14.86-1.28-20.31,5.46-6.81,8.43-13.25,17.19-20.56,25.17-6.18,6.75-5.33,12.81-.51,19.47,10.64,14.71,21.29,29.42,31.82,44.2,3.13,4.4,6.78,5.44,11.94,3.72,11.05-3.67,22.32-6.67,33.35-10.4,7.93-2.68,12.38-8.69,12.83-17.09.36-6.76.07-13.55.07-20.32ZM119.07,121.21c0,6.51-.29,13.03.07,19.52.53,9.66,5.69,14.9,15.16,15.97,5.65.63,11.33,1.06,16.99,1.66,7.05.75,11.97-1.81,14.9-8.53,5.41-12.42,11.14-24.69,16.69-37.05,3.65-8.13,2.45-15.89-2.16-23.25-5.04-8.04-10.13-16.05-15.34-23.98-5.36-8.17-7.5-8.42-15.44-2.28-1.29,1-2.46,2.16-3.82,3.03-20.09,12.86-33,29.23-27.04,54.91ZM110.27,81.32c4.79-1.32,9.53-1.52,12.9-3.77,9.67-6.43,18.91-13.53,28.07-20.68,4.03-3.15,2.98-7.07.11-10.72-5.02-6.38-9.98-12.81-14.97-19.21-5.27-6.76-12.19-9.53-20.7-8.65-11.57,1.2-23.14,2.37-34.72,3.4-13.81,1.23-17.1,4-20.34,17.58-5.68,23.76-5.55,24.14,17.44,31.9,10.71,3.62,21.56,6.81,32.21,10.15ZM65.45,175.15c15.59,14.64,77.51,4.67,87.84-12.8-30.58-6.77-58.62,3.2-87.84,12.8ZM58.1,31.19c-17.61,8.48-46.66,61.65-40.53,75.21,17.59-23.06,38.09-43.61,40.53-75.21Z"/>
</svg>