<?xml version="1.0" encoding="UTF-8"?>
<svg id="Layer_1" data-name="Layer 1" xmlns="http://www.w3.org/2000/svg" viewBox="0 0 200 200">
  <defs>
    <style>
      .cls-1 {
        fill: #161616;
        stroke-width: 0px;
      }
    </style>
  </defs>
  <path class="cls-1" d="M16.76,95.46c-.35-7.01-.82-14.01-1.01-21.03-.31-11.19,4.2-19.83,13.77-25.91,17.76-11.28,35.33-22.87,53.14-34.06,11.02-6.92,22.49-7.24,33.87-.64,14.97,8.68,29.84,17.54,44.81,26.22,10.77,6.25,16.39,15.61,17.49,27.9,1.75,19.56,3.64,39.11,5.29,58.68,1.13,13.43-4.17,23.76-16,30.34-17.98,10.01-36.1,19.76-54.11,29.71-10.27,5.67-20.39,5.62-30.79.26-15.17-7.82-30.33-15.7-45.78-22.94-12.68-5.95-18.61-15.37-18.77-29.3-.15-13.08-1.2-26.15-1.85-39.22h-.06Z"/>
</svg>