<?xml version="1.0" encoding="UTF-8"?>
<svg id="Layer_1" data-name="Layer 1" xmlns="http://www.w3.org/2000/svg" viewBox="0 0 200 200">
  <defs>
    <style>
      .cls-1 {
        fill: #f7f7f7;
        stroke-width: 0px;
      }
    </style>
  </defs>
  <path class="cls-1" d="M16.76,95.46c-.35-7.01-.82-14.01-1.01-21.03-.31-11.19,4.2-19.83,13.77-25.91,17.76-11.28,35.33-22.87,53.14-34.06,11.02-6.92,22.49-7.24,33.87-.64,14.97,8.68,29.84,17.54,44.81,26.22,10.77,6.25,16.39,15.61,17.49,27.9,1.75,19.56,3.64,39.11,5.29,58.68,1.13,13.43-4.17,23.76-16,30.34-17.98,10.01-36.1,19.76-54.11,29.71-10.27,5.67-20.39,5.62-30.79.26-15.17-7.82-30.33-15.7-45.78-22.94-12.68-5.95-18.61-15.37-18.77-29.3-.15-13.08-1.2-26.15-1.85-39.22-.02,0-.03,0-.05,0ZM144.37,75.21c-24.17,2.53-46,4.86-67.84,7.09-13.6,1.39-15.83,6.02-8.32,17.59,11.95,18.42,23.9,36.84,35.85,55.26,5.42,8.35,8.14,8.19,12.75-.86,11.24-22.06,22.52-44.1,33.48-66.3,1.37-2.78,2.22-7.22.91-9.51-1.29-2.26-5.64-2.76-6.83-3.27ZM71.08,78.63c26.14-2.58,50.76-4.91,75.37-7.51,6.22-.66,7.22-3.58,2.84-8.18-13.36-14.03-26.84-27.95-40.46-41.74-5.37-5.44-11.63-4.68-15.75,1.93-9.26,14.86-18.33,29.84-27.29,44.88-3.78,6.35-.79,10.76,5.28,10.62ZM28.91,146.72c2.71,2.05,5.43,5.66,8.8,6.42,19.82,4.42,39.78,8.24,59.73,12.06,1.77.34,3.81-.75,5.72-1.18-.45-1.71-.5-3.68-1.41-5.09-12.95-19.99-25.91-39.98-39.12-59.81-4.84-7.26-10.32-6.61-13.98,1.42-5.9,12.96-11.61,26.01-17.35,39.04-.74,1.69-1.18,3.51-2.38,7.14ZM116.62,164.16c2.71,0,3.92.3,4.91-.04,15.22-5.27,30.51-10.35,45.57-16.06,7.62-2.89,10.76-10.38,8.5-18.47-3.64-13.04-7.44-26.04-11.47-38.96-.75-2.41-2.87-4.39-4.36-6.57-2.05,1.94-4.81,3.51-6.03,5.88-11.48,22.19-22.71,44.52-33.98,66.83-1.01,2-1.76,4.13-3.13,7.4ZM90.78,19.29c-1.61-.27-2.46-.7-2.87-.44-18.78,11.75-37.65,23.37-56.09,35.62-1.98,1.32-3.14,7.3-1.88,9.53,7.03,12.43,24.96,12.86,32.58,1.09,8.24-12.73,16.23-25.62,24.28-38.47,1.39-2.22,2.51-4.61,3.98-7.34ZM25,139.71c.97.14,1.95.28,2.92.42,6.38-15.94,13.13-31.76,18.96-47.9,2.14-5.92-1.2-11.48-5.74-15.64-2.56-2.35-5.47-4.53-8.59-6-2.47-1.17-6.27-2.41-8.06-1.3-1.91,1.18-3.04,5.1-2.95,7.77.41,12.37,1.39,24.73,2.11,37.09.5,8.52.9,17.05,1.34,25.57ZM41.73,157.38c-.17.61-.35,1.23-.52,1.84,16.27,8.02,32.51,16.1,48.84,23.98,1.77.85,4.76,1.48,6.04.58,3.34-2.36,7.75-5.19,8.6-8.62,1.16-4.67-3.83-5.97-7.94-6.79-16.27-3.25-32.52-6.63-48.78-9.94-2.07-.42-4.16-.71-6.24-1.06ZM114.67,19.68c-.5.62-1.01,1.25-1.51,1.87,14.08,13.82,28.02,27.79,42.33,41.37,3.96,3.76,10.02,1.42,10.27-4.17.17-3.85-1.57-9.62-4.42-11.45-15.21-9.74-31.05-18.52-46.66-27.62ZM176.09,121.23c.54,0,1.09,0,1.63,0-.33-4.83-.59-9.66-1.02-14.48-1.13-12.77-2.25-25.55-3.63-38.3-.19-1.8-1.8-3.44-2.75-5.16-1.55,1.46-3.94,2.67-4.46,4.43-.96,3.26-1.74,7.06-.99,10.25,3.43,14.49,7.43,28.84,11.22,43.25ZM107.03,180.69c.62.74,1.24,1.49,1.87,2.23,16.23-8.94,32.46-17.89,48.69-26.83-13.72,3.42-26.89,8.05-39.7,13.5-4.82,2.05-9.68,5.29-10.86,11.1ZM54.46,87.72c2.69-2.64,4.37-4.28,6.05-5.92-1.44-1.25-3.14-3.72-4.25-3.48-1.78.39-3.59,2.34-4.52,4.1-.41.78,1.3,2.68,2.71,5.31Z"/>
</svg>