<?xml version="1.0" encoding="UTF-8"?>
<svg id="Layer_1" data-name="Layer 1" xmlns="http://www.w3.org/2000/svg" viewBox="0 0 200 200">
  <defs>
    <style>
      .cls-1 {
        fill: #161616;
        stroke-width: 0px;
      }
    </style>
  </defs>
  <path class="cls-1" d="M15.99,49.69c-.41-13.47,2.33-18.19,12.21-22.15,14.48-5.81,29.1-11.27,43.69-16.8,7.95-3.01,15.41-1.96,22.03,3.4,27.81,22.54,55.7,44.99,83.28,67.81,10.26,8.49,8.84,19.17-3.11,27.11-36.77,24.42-73.62,48.7-110.43,73.06-2.69,1.78-5.18,3.87-7.95,5.49-12.33,7.22-22.67,2.44-24.66-11.68-1.8-12.79-2.98-25.67-4.51-38.49-3.6-30.19-7.26-60.37-10.55-87.74h0Z"/>
</svg>