<?xml version="1.0" encoding="UTF-8"?>
<svg id="Layer_1" data-name="Layer 1" xmlns="http://www.w3.org/2000/svg" viewBox="0 0 200 200">
  <defs>
    <style>
      .cls-1 {
        fill: #f7f7f7;
        stroke-width: 0px;
      }
    </style>
  </defs>
  <path class="cls-1" d="M15.99,49.69c-.41-13.47,2.33-18.19,12.21-22.15,14.48-5.81,29.1-11.27,43.69-16.8,7.95-3.01,15.41-1.96,22.03,3.4,27.81,22.54,55.7,44.99,83.28,67.81,10.26,8.49,8.84,19.17-3.11,27.11-36.77,24.42-73.62,48.7-110.43,73.06-2.69,1.78-5.18,3.87-7.95,5.49-12.33,7.22-22.67,2.44-24.66-11.68-1.8-12.79-2.98-25.67-4.51-38.49-3.6-30.19-7.26-60.37-10.55-87.74ZM44.32,174.97c.15,7.03,4.26,8.77,10.24,4.83,38.9-25.63,77.76-51.33,116.53-77.15,7.54-5.02,7.58-10.57.58-16.19-24.58-19.7-49.18-39.39-73.81-59.03-8.53-6.81-14.83-4.59-17.57,6.11-10.55,41.2-21.08,82.41-31.6,123.62-1.6,6.25-3.08,12.53-4.38,17.81ZM38.07,174.81c.57.02,1.15.04,1.72.06.61-1.07,1.51-2.07,1.79-3.22,11.41-46.76,22.87-93.52,34.06-140.33,2.13-8.93-2.61-12.7-11.47-9.67-9.66,3.31-19.28,6.75-28.86,10.3-13.16,4.87-14.23,6.82-12.53,21,3.66,30.44,7.24,60.89,10.97,91.31,1.25,10.21,2.87,20.37,4.32,30.55Z"/>
</svg>