<?xml version="1.0" encoding="UTF-8"?>
<svg id="Layer_1" data-name="Layer 1" xmlns="http://www.w3.org/2000/svg" viewBox="0 0 200 200">
  <defs>
    <style>
      .cls-1 {
        fill: #161616;
        stroke-width: 0px;
      }
    </style>
  </defs>
  <path class="cls-1" d="M21.11,86.38c2.79-6.4,5.29-14.91,9.88-22.06,8.94-13.93,19.14-27.05,28.67-40.6,6.76-9.61,15.82-13.46,27.3-11.3,24.69,4.65,49.39,9.2,74,14.22,12.16,2.48,18.55,12.06,17.86,26.12-1.64,33.74-4.95,67.18-18.79,98.65-3.21,7.31-5.23,15.14-8.06,22.62-4.09,10.84-13.94,16.24-25.15,13.37-25.68-6.55-51.28-13.42-76.92-20.16-9.1-2.39-15.51-8.3-17.36-17.2-4.2-20.25-7.39-40.71-11.45-63.67h.02Z"/>
</svg>