<?xml version="1.0" encoding="UTF-8"?>
<svg id="Layer_1" data-name="Layer 1" xmlns="http://www.w3.org/2000/svg" viewBox="0 0 200 200">
  <defs>
    <style>
      .cls-1 {
        fill: #f7f7f7;
        stroke-width: 0px;
      }
    </style>
  </defs>
  <path class="cls-1" d="M21.11,86.38c2.79-6.4,5.29-14.91,9.88-22.06,8.94-13.93,19.14-27.05,28.67-40.6,6.76-9.61,15.82-13.46,27.3-11.3,24.69,4.65,49.39,9.2,74,14.22,12.16,2.48,18.55,12.06,17.86,26.12-1.64,33.74-4.95,67.18-18.79,98.65-3.21,7.31-5.23,15.14-8.06,22.62-4.09,10.84-13.94,16.24-25.15,13.37-25.68-6.55-51.28-13.42-76.92-20.16-9.1-2.39-15.51-8.3-17.36-17.2-4.2-20.25-7.39-40.71-11.45-63.67ZM86.17,18.89c-10.38-.58-16.19,2.29-20.5,8.55-8.93,12.95-18.1,25.74-27.03,38.69-7.16,10.39-5.34,14.8,7.19,17.5,26.96,5.81,53.94,11.54,80.92,17.25,10.08,2.13,16.57-.79,20.95-10.03,6.38-13.46,12.57-27.02,18.5-40.68,3.8-8.77.43-15.07-8.95-17.37-5.08-1.24-10.29-1.99-15.43-3-19.48-3.81-38.96-7.64-55.65-10.91ZM140.86,147.24h.05c0-3.59,0-7.18,0-10.77,0-3.87.14-7.74-.09-11.6-.59-10.2-5.05-16.27-14.68-18.55-28.2-6.68-56.46-13.13-84.75-19.4-8.66-1.92-12.56,2.07-11.16,10.97,2.46,15.54,5.23,31.04,7.8,46.57,1.53,9.24,7.06,14.75,15.88,17.08,23.76,6.26,47.52,12.5,71.32,18.58,9.91,2.53,15.28-1.73,15.58-12.15.2-6.9.04-13.81.04-20.72ZM145.36,169.25c16.06-30.08,29.84-95.2,25.12-116.41-20.73,35.51-29.74,74.04-25.12,116.41Z"/>
</svg>