<?xml version="1.0" encoding="UTF-8"?>
<svg id="Layer_1" data-name="Layer 1" xmlns="http://www.w3.org/2000/svg" viewBox="0 0 200 200">
  <defs>
    <style>
      .cls-1 {
        fill: #f7f7f7;
        stroke-width: 0px;
      }
    </style>
  </defs>
  <path class="cls-1" d="M20.56,128.27c2.21-7.7,3.85-13.51,5.55-19.3,8.6-29.32,17.16-58.66,25.86-87.95,4.52-15.24,10.9-18.02,25.28-11.27,29.56,13.87,59.12,27.76,88.68,41.66,13.14,6.18,16.05,12.71,11.54,26.66-11.33,35.11-22.74,70.18-34.18,105.25-2.96,9.09-10.94,13-19.33,8.5-31.56-16.95-63.01-34.11-94.17-51.78-4.19-2.37-6.47-8.11-9.24-11.78ZM165.34,69.64c-1.57.61-3.3,1.22-4.98,1.95-31.13,13.67-62.27,27.33-93.36,41.07-9.49,4.2-10.13,7.78-2.4,14.75,19.78,17.83,39.67,35.54,59.57,53.24,7.38,6.57,11.44,5.42,14.66-4.3,5.96-18.02,11.77-36.1,17.56-54.17,4.59-14.31,9.03-28.66,13.59-42.97,1.45-4.57,1.57-8.4-4.64-9.57ZM53.3,103.63c-.15,5.58,2.94,8.17,9.6,5.38,33.23-13.95,66.4-28.06,99.52-42.26,1.94-.83,3.31-2.98,4.95-4.52-1.55-1.61-2.81-3.84-4.7-4.74-29.72-14.09-59.48-28.09-89.34-41.91-7.03-3.25-11.41-.81-12.19,6.78-2.72,26.43-5.14,52.9-7.85,81.27ZM114.68,179.11c-1.27-2.43-1.44-3.24-1.94-3.67-18.58-15.91-37.11-31.88-55.84-47.61-4.99-4.19-11.08-5.06-17.04-2.17-2.85,1.38-5.13,3.93-7.67,5.94,2.16,2.08,4.01,4.73,6.54,6.15,18.12,10.15,36.38,20.07,54.62,30.02,6.56,3.58,13.19,7.01,21.33,11.33ZM56.62,35.25c-.69-.21-1.37-.43-2.06-.64-8.74,29.95-18.36,59.66-24.94,90.36,9.98-2.96,16.68-9.07,18.06-18.41,3.51-23.69,6.02-47.53,8.93-71.31Z"/>
</svg>